<?xml version="1.0" encoding="utf-8"?>
<!-- Generator: Adobe Illustrator 23.0.1, SVG Export Plug-In . SVG Version: 6.00 Build 0)  -->
<svg version="1.1" id="레이어_1" xmlns="http://www.w3.org/2000/svg" xmlns:xlink="http://www.w3.org/1999/xlink" x="0px"
	 y="0px" viewBox="0 0 100 100" style="enable-background:new 0 0 100 100;" xml:space="preserve">
<style type="text/css">
	.st0{fill:#B25D5E;}
	.st1{fill:#FBFBFB;}
	.st2{fill:#8D4847;}
	.st3{fill:#8D4846;}
	.st4{fill:#9D5D66;}
	.st5{fill:#9D6361;}
	.st6{fill:#976263;}
	.st7{fill:#946162;}
	.st8{fill:#FBF1ED;}
	.st9{fill:#966868;}
	.st10{fill:#976264;}
	.st11{fill:#F9EDE8;}
	.st12{fill:#764510;}
	.st13{fill:#724617;}
	.st14{fill:#734616;}
	.st15{fill:#714619;}
	.st16{fill:#7C4F50;}
	.st17{fill:#584325;}
	.st18{fill:#764342;}
	.st19{fill:#5E4321;}
	.st20{fill:#6C4A24;}
	.st21{fill:#F7F1E5;}
	.st22{fill:#73484A;}
	.st23{fill:#543D1A;}
	.st24{fill:#FAF1E1;}
	.st25{fill:#6D4F2C;}
	.st26{fill:#FDFDFD;}
	.st27{fill:#503617;}
</style>
<g>
	<g>
		<path class="st0" d="M103.64,49.62c0,17.68,6.92,42.01-1.98,51.14c-8.59,8.8-33.51,1.92-51.25,1.9
			c-17.22-0.02-40.91,6.53-49.79-2.04c-8.57-8.25-1.87-32.13-1.85-49.15c0.03-18.39-7.09-43.72,2.2-53.2
			c8.98-9.16,34.87-2,53.34-1.98c16.5,0.02,39.19-6.25,47.72,1.96c8.21,7.9,1.78,30.79,1.78,47.09c0,1.43,0,2.86,0,4.28
			C103.74,49.62,103.69,49.62,103.64,49.62z"/>
		<path class="st1" d="M21.95,16.22c3.79-3.07,7.57-6.14,11.36-9.21c2.49-2.41,5.67-3.42,8.9-4.32c1.42-0.4,3.11,0.01,4.19-1.4
			c5.21,0.22,10.43,0.45,15.64,0.67c4.99,0.94,9.89,2.08,13.72,5.75c1.91,1.42,3.82,2.83,5.74,4.25c1.93,2.03,4.16,3.78,5.69,6.16
			c1.47,3.64,3,7.25,5.56,10.32c0.59,2.38,1.17,4.75,1.76,7.13c1.81,2.93,1.3,6.11,0.91,9.23c-0.31,2.44-0.79,4.86-1.07,7.3
			c-1.57,2.5-1.34,5.94-4.13,7.81c-0.08,0.21-0.16,0.42-0.24,0.63c-2.07,1.33-2.8,3.48-3.46,5.66c-2.16,2.58-4.32,5.16-6.47,7.75
			c-4.36,6.62-11.46,8.14-18.49,9.78c-5.21,0.03-10.43-0.02-15.64,0.05c-4.08-1.33-8.17-2.64-12.02-4.61
			c-3.4-1.74-4.33-1.45-6.42,1.84c-0.9,1.42-1.9,2.73-3.12,3.88c-3.14,2.95-5.17,2.82-8.3-0.05c-1.43-1.31-1.97-3.26-3.63-4.32
			c-0.05-0.72-0.09-1.43-0.14-2.15c-0.03-1.42,0.13-2.77,1.31-3.77c1.89-1.19,3.6-2.59,4.94-4.38c2.36-3.16,2.33-3.24-1.03-5.64
			c-2.53-3.27-3.37-7.15-4.12-11.06c-1.67-6.03-1.32-12.19-1.29-18.34c0.29-1.42,0.81-2.74,1.71-3.9c0.52-0.94,1.04-1.89,1.56-2.83
			C16.37,23.75,18.36,19.56,21.95,16.22z"/>
		<path class="st2" d="M12.42,80.51c7.77,8.54,11.02,1.56,16.77-3.21c2.43-2.02,10.69,2.89,16.31,4.64
			c1.17,0.98,2.55,1.15,4.03,1.09c4.17-0.15,8.35,0.31,12.5-0.44c6-2.89,12.01-5.77,18.01-8.66c-3.91,17.1-33.11,26.57-52.48,16.89
			c-3.32-1.66-6.1-3.22-8.76,0.9c-3.26,5.06-7.07,9.64-12.46,2.3c-3.77-5.14,3.52-5.9,4.43-9.33
			C11.15,83.27,11.86,81.91,12.42,80.51z"/>
		<path class="st3" d="M13.8,31.28c-0.2,1.2-0.39,2.41-0.59,3.61c-0.78,6.43-1.2,12.84,1.51,19c1.42,3.34,2.84,6.68,4.26,10.02
			c1.75,2.57,1.26,4.81-0.82,7c-1.37,1.44-2.67,2.99-3.45,4.87c-0.81,0.86-1.62,1.72-2.43,2.58C2.2,61.82,2.98,37.66,13.8,31.28z"/>
		<path class="st4" d="M93.63,52.39c0.29-5.61,0.59-11.22,0.88-16.83c4.67,6.15,0.92,11.97-0.72,17.87
			C93.39,53.13,93.34,52.79,93.63,52.39z"/>
		<path class="st5" d="M21.95,16.22c-2.2,4.08-4.4,8.15-6.6,12.23C15.61,23.34,16.72,18.69,21.95,16.22z"/>
		<path class="st6" d="M75.76,7.71c-4.57-1.92-9.15-3.83-13.72-5.75C67.41,2,72.4,2.96,75.76,7.71z"/>
		<path class="st7" d="M46.4,1.29C42.04,3.2,37.68,5.1,33.31,7.01C36.4,2.22,41.67,2.37,46.4,1.29z"/>
		<path class="st8" d="M92.75,28.44c-2.05-3.41-4.1-6.82-6.15-10.22c0.71-0.16,0.98,0.42,1.35,0.82
			C89.55,22.17,91.15,25.3,92.75,28.44z"/>
		<path class="st9" d="M87.95,19.03c-0.45-0.27-0.9-0.55-1.35-0.82c-1.7-2.08-3.4-4.17-5.1-6.25
			C84.85,13.24,87.42,15.22,87.95,19.03z"/>
		<path class="st10" d="M93.63,52.39c0.05,0.35,0.1,0.7,0.15,1.04c-0.5,2.53,0.5,5.88-3.57,6.47C91.36,57.4,92.49,54.89,93.63,52.39
			z"/>
		<path class="st11" d="M86.51,66.2c-0.67-2.99,0.27-5,3.46-5.66C88.82,62.42,87.67,64.31,86.51,66.2z"/>
		<path class="st12" d="M32.28,67.07c-0.38-0.3-0.76-0.61-1.14-0.91c-0.45-1.09-0.68-2.19-0.35-3.36c0.26-2.36,1.78-3.25,3.96-3.38
			c0.58-0.15,1.23-0.3,1.75-0.01c3.18,1.78,5.26,0.19,7.45-2.01c2.25-2.26,3.58-4.14,1.16-7.26c-1.67-2.16-1.07-4.81,0.83-6.85
			c3.08-3.3,6.29-6.5,9.65-9.52c2.36-2.12,5.16-2.57,7.89-0.72c2.24,1.52,3.98,1.07,5.65-0.77c0.48-0.53,1.01-1.01,1.51-1.52
			c2.93-3.01,2.97-3.49,0.84-7.04c-0.84-1.39-2.11-2.67-1.45-4.55c1.1-1.94,2.55-2.53,4.77-1.65c2.66,1.06,4.1,2.97,4.12,5.63
			c0.09,11.29-0.05,22.58-0.09,33.87c-0.01,2.63-0.24,5.21-1.32,7.64c-1.58,1.78-3.08,3.67-5.74,3.87
			c-3.44-2.21-6.86-2.11-10.82-1.02c-3.58,0.99-7.55,0.76-11.25-0.56c-2.92-1.05-5.47-0.86-7.74,1.68c-1.7,1.91-3.84,2.18-5.97,0.29
			C34.95,67.99,33.83,67.08,32.28,67.07z"/>
		<path class="st13" d="M76.44,64.78c0.32-13.96,0.71-27.92,0.83-41.88c0.01-1.28-1.44-3.05-2.69-3.72
			c-0.91-0.49-2.6,0.47-3.94,0.78c-1.94,1.94-4.25,2.89-7.03,2.64c-3.22-1.52-6.81-2.58-10.14-1.98c-4.32,0.78-8.47,0.2-12.66-0.03
			c-3.38-0.19-6.9,1.01-10.16-0.77c-0.24-0.24-0.43-0.52-0.57-0.83c5.1-6.82,12.37-9.44,20.48-10.44c4.7,0.19,9.33,0.95,13.92,1.92
			c10.99,3.03,17.98,10.08,21.29,20.84c-0.54,2.83,1.5,5.16,1.51,7.94c0.01,2.96-0.46,5.89-0.41,8.84
			c-1.34,4.95-3.41,9.58-6.09,13.95c-0.49,0.92-0.97,1.85-1.46,2.77c-0.49,0.73-0.99,1.45-2.06,1.15
			C76.77,65.74,76.48,65.34,76.44,64.78z"/>
		<path class="st14" d="M30.09,19c0.35,0.05,0.71,0.1,1.06,0.16c0.17,0.44-0.04-0.06,0.26,0.25c2.12,2.24-2.23,4.45-0.1,6.48
			c2.03,1.93,1.84,4.04,1.65,6.52c-0.32,4.25-0.57,8.55,0.24,12.8c0.72,3.8-1.25,6.98-2.72,10.09c-0.98,2.07-1.8,3.48,0.1,5.23
			c0.83,0.77,0.33,2.14,1.28,2.87c-0.24,0.92-0.47,1.85-0.71,2.77c-8.29-5.78-10.95-14.39-11.08-23.7
			C19.93,33.42,22.3,24.95,30.09,19z"/>
		<path class="st15" d="M32.28,67.07c13.29,0.12,26.65-4.93,39.86,0.6c1.28,1.89-1.13,2.3-1.45,3.55c-2.41,1.17-4.81,2.34-7.22,3.51
			c-1.41,1.16-3.13,1.05-4.8,1.12c-1.27-0.47-2.62-0.23-3.92-0.4c-3.54-0.58-7.11-0.89-10.67-1.34
			C40.14,71.77,36.21,69.42,32.28,67.07z"/>
		<path class="st16" d="M14.71,75.79c1.42-3.96,2.85-7.92,4.27-11.87C25.74,70.78,16.02,71.79,14.71,75.79z"/>
		<path class="st17" d="M86.48,49.07c-0.23-5.92-0.47-11.83-0.7-17.75c2.87,6.11,2.78,12.34,0.81,18.65
			c-0.2-0.18-0.29-0.37-0.25-0.58C86.38,49.18,86.42,49.07,86.48,49.07z"/>
		<path class="st18" d="M14.72,53.9c-3.71-6.08-2.83-12.53-1.51-19C13.71,41.23,14.21,47.56,14.72,53.9z"/>
		<path class="st19" d="M86.48,49.07c0.04,0.3,0.07,0.6,0.11,0.9c-1.93,4.03-3.86,8.06-5.79,12.09
			C82.69,57.73,84.59,53.4,86.48,49.07z"/>
		<path class="st20" d="M70.69,71.22c0.48-1.18,0.97-2.36,1.45-3.55c1.43-0.97,2.87-1.93,4.3-2.9c0.26,0.28,0.51,0.57,0.77,0.85
			c1.01,2.42-0.78,2.84-2.44,3.36C73.41,69.74,72.05,70.48,70.69,71.22z"/>
		<path class="st21" d="M58.46,75.38c1.67-0.22,3.34-0.43,5-0.65c-6.21,2.65-12.43,2.42-18.67,0.12c0.46-0.5,1.04-0.69,1.71-0.71
			C50.48,74.58,54.47,74.99,58.46,75.38z"/>
		<path class="st22" d="M62.02,82.6c-5.56,0.95-11.12,2.06-16.52-0.66C51.01,82.16,56.52,82.38,62.02,82.6z"/>
		<path class="st23" d="M64.49,10.49c-4.64-0.64-9.28-1.28-13.92-1.92C55.21,9.21,59.85,9.85,64.49,10.49z"/>
		<path class="st24" d="M74.77,69c0.81-1.12,1.62-2.24,2.44-3.36c0.71-0.27,1.42-0.53,2.13-0.8C79.08,67.59,78.55,70.04,74.77,69z"
			/>
		<path class="st25" d="M46.26,74.75c-0.49,0.04-0.98,0.08-1.46,0.11c-0.24-0.25-0.48-0.5-0.72-0.74c3.59,0.21,7.17,0.42,10.76,0.63
			C51.97,76.11,49.12,74.12,46.26,74.75z"/>
		<path class="st12" d="M31.85,63.39c-12.12-5.7,0.47-11.84,0.31-17.79c-0.23-8.79-6-17.55-1.02-26.44
			c10.56,0.05,21.12,0.09,31.68,0.16c3.23,0.02,0.46,1.69,0.67,2.54c0.12,1.56-0.92,2.31-2.07,3.04
			c-10.04,6.34-18.04,14.68-24.6,24.48c-2.02,3.02-3.53,5.94-1.19,9.45c0.33,0.5,0.23,1.15-0.13,1.69
			C34.29,61.47,33.07,62.43,31.85,63.39z"/>
		<path class="st26" d="M35.51,60.51c-8.27-10.35,2.71-15.36,7.1-20.89c5.57-7.01,13.8-11.94,20.89-17.76
			c2.38-0.63,4.76-1.26,7.14-1.9c1.72,2.94,6.55,5.6,3.58,9.15c-2.9,3.47-4.81,9.3-13.15,4.99c-5.56-2.87-9.53,6.89-14.33,10.81
			c-2.32,1.89-0.68,4.03,0.84,6.08c0.78,1.06,1.06,3.9,0.43,4.34C44.28,57.97,42.54,65.86,35.51,60.51z"/>
		<path class="st27" d="M46.26,74.75c2.86,0,5.72,0,8.58,0c1.21,0.21,2.42,0.42,3.63,0.63C54.39,75.17,50.33,74.96,46.26,74.75z"/>
	</g>
</g>
</svg>
