<?xml version="1.0" encoding="utf-8"?>
<!-- Generator: Adobe Illustrator 23.0.1, SVG Export Plug-In . SVG Version: 6.00 Build 0)  -->
<svg version="1.1" id="레이어_1" xmlns="http://www.w3.org/2000/svg" xmlns:xlink="http://www.w3.org/1999/xlink" x="0px"
	 y="0px" viewBox="0 0 100 100" style="enable-background:new 0 0 100 100;" xml:space="preserve">
<style type="text/css">
	.st0{fill:#6E6E6E;}
	.st1{fill:#FBFBFB;}
	.st2{fill:#565656;}
	.st3{fill:#3F3F3F;}
	.st4{fill:#4D4D4D;}
	.st5{fill:#515151;}
	.st6{fill:#FDFDFD;}
</style>
<g>
	<g>
		<path class="st0" d="M103.79,102.66c-34.17,0-68.31-0.02-102.45,0.04c-1.97,0-2.66-0.18-2.65-2.48
			C-1.21,66.34-1.22,32.46-1.3-1.43c-0.01-2.04,0.49-2.35,2.42-2.34C34.55-3.7,67.97-3.7,101.39-3.76c1.87,0,2.47,0.2,2.46,2.3
			C103.76,33.25,103.79,67.95,103.79,102.66z"/>
		<path class="st1" d="M14.64,30.57c2.34-5.73,5.02-11.23,9.29-15.88C38.52-1.18,64.21-2.94,80.32,11.28
			c18.77,16.58,18.68,41.82,3.46,58.4c-1.28,1.4-2.5,2.85-3.75,4.28c-5.27,7.88-14.13,8.75-22.19,11.17
			c-3.4-0.03-6.81,0.15-10.21-0.11c-4.2-1.93-8.65-3.26-12.86-5.2c-3.69-1.7-5.1-1.33-7.77,1.72c-0.47,0.53-0.9,1.1-1.4,1.61
			c-5.26,5.26-8.38,6.22-12.41-2.64c-0.24-0.7-0.48-1.4-0.73-2.1c-0.05-2.7,1.61-4.48,3.32-6.3c3.33-3.54,3.28-4.8,1.12-9.1
			c-2.05-4.08-4.34-8.07-5.78-12.44c-0.66-2.97-0.58-5.95-0.24-8.95C11.34,37.67,11.83,33.72,14.64,30.57z"/>
		<path class="st2" d="M13.18,80.51c1.4,1.11,3.13,1.98,4.12,3.37c1.67,2.35,3.15,1.62,4.61,0.15c2.26-2.28,4.34-4.72,6.51-7.08
			c0.78-0.84,1.46-2.14,2.91-1.14c4.77,3.28,10.36,4.65,15.64,6.75c3.76,0.77,7.51,0.76,11.27,0c4.92-0.71,9.51-2.47,14.14-4.2
			c2.85-1.06,4.55-3.89,7.65-4.39c-1.06,5.45-5.03,8.95-9.04,12.05C57.51,96.42,42.79,97.6,27.35,90.75
			c-5.51-2.44-5.51-2.59-9.24,1.98c-0.3,0.37-0.59,0.75-0.9,1.11c-4.75,5.51-4.69,5.44-10.29,0.82c-2.25-1.85-2.02-3.27-0.26-5.31
			C9.06,86.58,12.03,84.19,13.18,80.51z"/>
		<path class="st2" d="M13.96,51.07c1.73,5.17,3.54,10.3,6.98,14.66c0.97,1.23,0.95,2.28-0.13,3.45c-2.81,3.04-5.57,6.14-8.35,9.22
			C1.71,63.6,3.21,46.01,10.96,33.79c0.9-1.42,1.92-2.75,3.68-3.22c-0.56,3.81-1.64,7.55-1.6,11.45
			C12.59,45.11,12.5,48.17,13.96,51.07z"/>
		<path class="st3" d="M53.74,75.78C35.21,75.8,20.09,60.77,19.94,42.2C19.79,23.48,35.12,8.39,54.27,8.34
			c17.96-0.04,31.59,14.59,33.21,28.73c1.27,11.07-1.47,20.59-9.25,28.58C71.57,72.48,63.31,75.75,53.74,75.78z"/>
		<path class="st4" d="M13.96,51.07c-1.74-2.19-1.98-4.52-0.92-9.06C13.35,45.03,13.65,48.05,13.96,51.07z"/>
		<path class="st5" d="M58.24,82.56c-3.76,1.56-7.51,1.03-11.27,0C50.73,82.55,54.49,82.55,58.24,82.56z"/>
		<path class="st6" d="M32.57,55.51c-0.22-1.19,0.41-2.37,1.04-3.5c7.7-13.63,18.27-24.34,32.46-31.37
			c3.31-1.64,5.23-0.33,7.09,2.43c1.84,2.74,3.01,5.15-0.09,7.71c-0.92,0.76-1.71,1.65-2.57,2.49c-3.74,3.65-3.74,3.66-8.2,0.77
			c-2.08-1.35-3.95-0.67-5.49,0.78c-3.3,3.1-6.47,6.33-9.67,9.54c-2.06,2.07-1.89,4.11,0.14,6.15c2.12,2.14,2.41,4.16-0.32,6.18
			c-1.42,1.05-2.55,2.5-3.84,3.73c-1.33,1.27-2.46,3.19-4.77,1.56C35.98,60.3,32.35,59.76,32.57,55.51z"/>
	</g>
</g>
</svg>
